<svg width="21" height="20" viewBox="0 0 21 20" fill="none" xmlns="http://www.w3.org/2000/svg">
<path d="M8.93157 19.9296L8.87518 19.9767C4.31958 19.1609 0.867493 15.2301 0.867493 10.4835C0.867493 5.20871 5.18261 0.893616 10.4574 0.893616C15.731 0.893616 20.0461 5.20871 20.0461 10.4835C20.0461 15.2301 16.594 19.1609 12.0396 19.9767L11.9993 19.9434C12.0292 19.9388 12.058 19.933 12.0868 19.9284V13.1681H14.1971L14.6287 10.4835H12.0868V8.61362C12.0868 7.8461 12.3744 7.27077 13.5251 7.27077H14.7725V4.82554C14.1005 4.73003 13.3341 4.63337 12.6621 4.63337C10.4574 4.63337 8.92235 5.97623 8.92235 8.37313V10.4835H6.52546V13.1681H8.92235V19.9284C8.9258 19.9284 8.92811 19.9296 8.93157 19.9296Z" fill="white"/>
</svg>
