<svg width="24" height="25" viewBox="0 0 24 25" fill="none" xmlns="http://www.w3.org/2000/svg">
<path d="M20.5769 8.67823C20.5617 7.92309 20.418 7.17504 20.1538 6.46748C19.925 5.85912 19.5656 5.30846 19.102 4.85396C18.6475 4.39036 18.0969 4.03101 17.4885 3.80224C16.781 3.53805 16.0329 3.39431 15.2778 3.37912C14.306 3.33459 13.9953 3.32446 11.5213 3.32446C9.04741 3.32446 8.73665 3.33459 7.76489 3.37912C7.00976 3.39431 6.26171 3.53805 5.55415 3.80224C4.94579 4.03101 4.39513 4.39036 3.94063 4.85396C3.47703 5.30846 3.11768 5.85912 2.88891 6.46748C2.62472 7.17504 2.48098 7.92309 2.46579 8.67823C2.42126 9.64998 2.41113 9.96074 2.41113 12.4347C2.41113 14.9086 2.42126 15.2194 2.46579 16.1911C2.48098 16.9462 2.62472 17.6943 2.88891 18.4018C3.11768 19.0102 3.47703 19.5609 3.94063 20.0154C4.39513 20.479 4.94579 20.8383 5.55415 21.0671C6.26171 21.3313 7.00976 21.475 7.76489 21.4902C8.73665 21.5347 9.04741 21.5449 11.5213 21.5449C13.9953 21.5449 14.306 21.5347 15.2778 21.4902C16.0329 21.475 16.781 21.3313 17.4885 21.0671C18.7123 20.5934 19.68 19.6257 20.1538 18.4018C20.418 17.6943 20.5617 16.9462 20.5769 16.1911C20.6214 15.2194 20.6315 14.9086 20.6315 12.4347C20.6315 9.96074 20.6214 9.64998 20.5769 8.67823ZM18.937 16.1162C18.93 16.6932 18.8237 17.2661 18.6232 17.8077C18.3165 18.6013 17.6879 19.2299 16.8943 19.5366C16.3528 19.737 15.7798 19.8433 15.2029 19.8504C14.2422 19.8939 13.9538 19.903 11.5213 19.903C9.08891 19.903 8.80042 19.8939 7.8398 19.8504C7.26282 19.8433 6.68989 19.737 6.14834 19.5366C5.75255 19.3908 5.39523 19.158 5.10067 18.8553C4.79801 18.5608 4.56519 18.2034 4.41943 17.8077C4.219 17.2661 4.11272 16.6932 4.10563 16.1162C4.0621 15.1556 4.05299 14.8671 4.05299 12.4347C4.05299 10.0022 4.0621 9.71375 4.10563 8.75313C4.11272 8.17615 4.219 7.60322 4.41943 7.06167C4.56519 6.66588 4.79801 6.30856 5.10067 6.014C5.39523 5.71134 5.75255 5.47852 6.14834 5.33276C6.68989 5.13233 7.26282 5.02605 7.8398 5.01896C8.80042 4.97543 9.08891 4.96632 11.5213 4.96632C13.9538 4.96632 14.2422 4.97543 15.2029 5.01896C15.7798 5.02605 16.3528 5.13233 16.8943 5.33276C17.2901 5.47852 17.6474 5.71134 17.942 6.014C18.2447 6.30856 18.4775 6.66588 18.6232 7.06167C18.8237 7.60322 18.93 8.17615 18.937 8.75313C18.9806 9.71375 18.9897 10.0022 18.9897 12.4347C18.9897 14.8671 18.9806 15.1556 18.937 16.1162ZM11.5213 7.75607C8.95529 7.75607 6.84274 9.86862 6.84274 12.4347C6.84274 15.0007 8.95529 17.1133 11.5213 17.1133C14.0874 17.1133 16.1999 15.0007 16.1999 12.4347C16.1999 9.86862 14.0874 7.75607 11.5213 7.75607ZM11.5213 15.4714C9.85518 15.4714 8.4846 14.1008 8.4846 12.4347C8.4846 10.7685 9.85518 9.39793 11.5213 9.39793C13.1875 9.39793 14.5581 10.7685 14.5581 12.4347C14.5581 14.1008 13.1875 15.4714 11.5213 15.4714ZM17.4774 7.57184C17.4774 8.17109 16.9844 8.66507 16.3842 8.66507C15.7849 8.66507 15.2909 8.17109 15.2909 7.57184C15.2909 6.97158 15.7849 6.47862 16.3842 6.47862C16.9844 6.47862 17.4774 6.97158 17.4774 7.57184Z" fill="white"/>
</svg>
