<svg width="20" height="20" viewBox="0 0 20 20" fill="none" xmlns="http://www.w3.org/2000/svg">
<path d="M16.8241 15.465L14.065 12.7047C16.1295 9.94571 15.5665 6.03551 12.8076 3.97097C10.0487 1.90645 6.13847 2.46939 4.07393 5.22831C2.00942 7.98725 2.57235 11.8975 5.33127 13.962C7.54747 15.6204 10.5914 15.6204 12.8076 13.962L15.5679 16.7223C15.9148 17.0692 16.4772 17.0692 16.8241 16.7223C17.1709 16.3754 17.1709 15.813 16.8241 15.4662L16.8241 15.465ZM9.09246 13.4292C6.64043 13.4292 4.65271 11.4415 4.65271 8.98949C4.65271 6.53746 6.64043 4.54974 9.09246 4.54974C11.5445 4.54974 13.5322 6.53746 13.5322 8.98949C13.5296 11.4404 11.5434 13.4266 9.09246 13.4292Z" fill="white"/>
</svg>
